<svg xmlns="http://www.w3.org/2000/svg" viewBox="0 0 130.12 36.73"><defs><style>.cls-1{fill:#fff;}</style></defs><g id="Layer_2" data-name="Layer 2"><g id="レイヤー_3" data-name="レイヤー 3"><path class="cls-1" d="M114.52,10.75c.31,1.87,1.27,3.82,2.4,4.45s2-.12,2-.92-.3-1.09-1.34-2.43a5.2,5.2,0,0,1,3.76-8.74c3.07-.13,5.27,2.48,5.91,4.75s.15,4.36-2.07,5.28a4.19,4.19,0,0,1-4.55-1A4.93,4.93,0,0,1,119.31,9c-.07-.91-1.24-.77-1,.28a5.8,5.8,0,0,0,3.3,4.26,4.76,4.76,0,0,0,5.15-.74,5,5,0,0,0,1.07-5.44,6.73,6.73,0,0,0-6.3-4.68,7.26,7.26,0,0,0-5.81,2.76A7,7,0,0,0,114.52,10.75Z"/><path class="cls-1" d="M129.11,13.69a9.43,9.43,0,1,0-17.85-4.26,9.34,9.34,0,0,0,9.33,9.43,6.76,6.76,0,0,0,6.3-3.57,6.16,6.16,0,0,0-1.07-6.45c-1-1.16-2.65-2.32-3.62-2.22a1.1,1.1,0,0,0-1,1.62c.27.75,1.77,1.16,3.18,2.64a4.43,4.43,0,0,1,.86,4.72,4.61,4.61,0,0,1-4.39,2.63c-5,0-8.54-3.77-8.54-8.78a8.65,8.65,0,0,1,17.28,0,8.1,8.1,0,0,1-1,4,.34.34,0,0,0,.09.47A.35.35,0,0,0,129.11,13.69Z"/><path class="cls-1" d="M22.45,8.15a34.2,34.2,0,0,1-8.3-.88c-2.85-.66-5-1.9-8.24-1.87S-.33,6.58,0,7.35a9,9,0,0,0,3.08,3.13c1.54,1,3.49,1.81,4.39,1.76s1.56-.34.61-.66A31.6,31.6,0,0,1,3.46,9.71C2.58,9.19,1.9,8.53,2.58,8A7.81,7.81,0,0,1,6.21,7a8.71,8.71,0,0,1,5,.83A29.32,29.32,0,0,0,21.57,9.88c4.37,0,9.7-.28,11.9-1.05s2.67-1.54,2.59-2-.39-.58-2-1.13a42,42,0,0,0-7.61-1.73,28.14,28.14,0,0,0-6.54-.38c-1,.21-1.1.6-1.6,1.64A44.41,44.41,0,0,0,15.5,13a26.09,26.09,0,0,0-.25,9.81c.66,3.71,1.9,6.35,3.3,7.75S21.9,32.88,23,32.46s1.53-1.78,1.29-2-.44,0-1,.25a2.72,2.72,0,0,1-3.52-.61c-1.45-1.34-3-5-3.24-9.86a27.38,27.38,0,0,1,2-11A14.5,14.5,0,0,1,20,6.42c.58-.66,1.3-1,3-.91s4.29.29,6.14.46c1.62.14,4.5.33,4.58.83s-.6.63-2.23.82S25.5,8.12,22.45,8.15Z"/><path class="cls-1" d="M23.25,22.08c.21,1.44.7,3.08,1.88,3.35,1.33.3,1.88,0,2.39-.78.73-1.15,1.27-5.6,1.85-7.55.14-.47.15-.47.35-.15,1,1.63,1.92,3.42,2.56,4.66a25.9,25.9,0,0,1,2,4.62,14.41,14.41,0,0,1-.17,4.24c-.23,1.26-.35,1.77.19,2.56s.94.68,1.34.16.61-1.13.9-3.42.68-6.53,1.18-9.85a71.85,71.85,0,0,1,1.82-9C40.1,9,40.83,7.43,40.93,6.71s.11-1.18.15-1.55-.19-.3-.52.31a32.71,32.71,0,0,0-3.07,7.43c-.56,2.16-1.85,8-2.25,11,0,.31-.19.6-.45.1-1.11-2.18-2-4.35-2.72-6a16.23,16.23,0,0,0-2.16-3.91c-.54-.48-1.14-.53-1.32-.15-.58,1.2-1.23,5.59-2,8.09-.41,1.36-.79,2-1.2,1.92s-.59-.66-.68-1.58c-.21-2.11.45-5.73.28-6.9a1.8,1.8,0,0,0-1.54-1.69,3.65,3.65,0,0,0-1.86-.25c-.41.15-.39.29.25.68s1.49.93,1.57,1.69C23.61,17.79,23.09,21,23.25,22.08Z"/><path class="cls-1" d="M41,21.59c-.17,3.37.14,4.47.91,6.06.52,1.08.93,1.3,1.28,1.18s.38-.37.19-1.13a15.42,15.42,0,0,1-.48-5.22,12,12,0,0,1,.94-3.24,2.45,2.45,0,0,0-.08-2.06c-.31-.41-1.28-.76-1.77-1.11s-1-.1-.66.31A1.73,1.73,0,0,1,41.65,18,17.22,17.22,0,0,0,41,21.59Z"/><path class="cls-1" d="M47.47,19.71c-.18,2.24-.91,7.68-.87,8.18a1.23,1.23,0,0,0,.72.93c.31.18.5-.08.66-.54a78,78,0,0,0,1.47-9.23c0-.25.14-.33.45,0,1.56,1.42,3.11,4.2,4,5.71.79,1.33,1.46,2.27,1.48,3.82a36.61,36.61,0,0,1-.33,4.36c-.08.62.29.44.6.11A4.46,4.46,0,0,1,57,32c.54-.23.65-1.11.78-3,.21-3,.81-8.06,1.34-11.17a60.13,60.13,0,0,1,1.94-8.39,15.83,15.83,0,0,0,1-3c.1-.66.05-.84.09-1.21s-.08-.58-.42,0A43.23,43.23,0,0,0,58.33,14c-.58,2-1.65,6.63-1.94,8s-.45,2.27-.51,2.76-.17.54-.31.27a42.59,42.59,0,0,0-3.87-6.1c-.86-1-1.57-1.69-2.09-2.21-.69-.69-1-1-1.64-1.09s-1,.15-.91.72a16.81,16.81,0,0,1,.45,1.74A9.29,9.29,0,0,1,47.47,19.71Z"/><path class="cls-1" d="M82.22,19.53h0l-1,4.81h2Zm3.68,8.39c.15.65-1,1.06-1.34,1.06s-.42-.08-.5-.45l-.49-2.4h-2c-.46,0-.71.18-.77.47l-.27,1.3c-.16.8-1.13,1.08-1.72,1.08-.39,0-.45-.17-.38-.51l3-12.76H83Z"/><path class="cls-1" d="M73.72,15.71h-2V29h4.83c.79,0,1.12-1.09,1.12-1.45s-.17-.45-.51-.45H74.44c-.45,0-.72-.18-.72-.48Z"/><path class="cls-1" d="M101.39,15.71c.32,0,.48.08.48.43s-.31,1.36-1.06,1.36H98.33c-.46,0-.73.17-.73.47v3.19H101V23H98.33c-.46,0-.73.18-.73.47v3.64h3.8c.35,0,.52.08.52.45S101.59,29,100.79,29H95.6V15.71Z"/><path class="cls-1" d="M106.9,27.86c0,.79-1.14,1.12-1.52,1.12s-.47-.17-.47-.51v-11H102.6V15.71h6.59c.34,0,.51.08.51.43s-.33,1.36-1.12,1.36h-1c-.46,0-.73.17-.73.47Z"/><path class="cls-1" d="M89,21h0v6.86c0,.79-1.15,1.12-1.52,1.12s-.48-.17-.48-.51V15.71h1.92l3,8h0v-8h2V27.86c0,.79-1.15,1.12-1.52,1.12s-.37-.05-.45-.23Z"/><path class="cls-1" d="M64.14,15.71h3a3.31,3.31,0,0,1,2.58.93c.69.69.9,1.53.9,3.12a4.58,4.58,0,0,1-.56,2.66,3.12,3.12,0,0,1-2.9,1.38h-.29c-.46,0-.73.17-.73.47v3.59c0,.79-1.14,1.12-1.52,1.12s-.47-.17-.47-.51Zm2,6.3h1c1.63,0,1.64-.91,1.64-2.23s0-2.28-1.56-2.28h-.31c-.46,0-.73.17-.73.47Z"/><path class="cls-1" d="M85.19,32.79h0l-.4,2h.83Zm1.53,3.5c.07.27-.4.44-.55.44s-.18,0-.21-.19l-.21-1H84.9c-.19,0-.3.07-.32.19l-.11.55c-.07.33-.47.45-.72.45s-.19-.07-.16-.21l1.25-5.32h.69Z"/><path class="cls-1" d="M100.09,31.2c.14,0,.21,0,.21.18s-.13.57-.45.57h-1c-.2,0-.31.07-.31.19v1.33H100v.75H98.82c-.2,0-.31.07-.31.2v1.51h1.59c.14,0,.21,0,.21.19s-.13.61-.46.61H97.68V31.2Z"/><path class="cls-1" d="M76.82,31.2c.14,0,.2,0,.2.18s-.13.57-.44.57h-1c-.19,0-.3.07-.3.19v1.33h1.44v.75H75.54c-.19,0-.3.07-.3.2v1.51h1.59c.14,0,.21,0,.21.19s-.14.61-.47.61H74.41V31.2Z"/><path class="cls-1" d="M66.57,31.2c.14,0,.21,0,.21.18s-.13.57-.44.57h-1c-.2,0-.31.07-.31.19v1.33h1.44v.75H65.3c-.2,0-.31.07-.31.2v1.51h1.59c.15,0,.21,0,.21.19s-.13.61-.46.61H64.16V31.2Z"/><path class="cls-1" d="M106.33,36.26c0,.33-.48.47-.64.47s-.19-.07-.19-.22V31.94h-1V31.2h2.75c.14,0,.21,0,.21.18s-.14.56-.47.56h-.39c-.19,0-.3.08-.3.2Z"/><path class="cls-1" d="M82.72,36.26c0,.33-.47.47-.63.47s-.2-.07-.2-.22V31.94h-1V31.2h2.75c.14,0,.21,0,.21.18s-.14.56-.47.56H83c-.19,0-.31.08-.31.2Z"/><path class="cls-1" d="M87.35,36.51c0,.15,0,.22.2.22s.63-.14.63-.47V31.2h-.83Z"/><path class="cls-1" d="M72.78,36.26c0,.33-.47.47-.63.47s-.2-.07-.2-.22V31.94H71V31.2h2.74c.15,0,.22,0,.22.18s-.14.56-.47.56h-.39c-.2,0-.31.08-.31.2Z"/><path class="cls-1" d="M90,33.4h0v2.86c0,.33-.47.47-.63.47s-.2-.07-.2-.22V31.2h.8l1.26,3.33h0V31.2H92v5.06c0,.33-.47.47-.63.47s-.15,0-.19-.1Z"/><path class="cls-1" d="M101.81,33.4h0v2.86c0,.33-.48.47-.63.47s-.2-.07-.2-.22V31.2h.8L103,34.53h0V31.2h.83v5.06c0,.33-.48.47-.63.47s-.15,0-.19-.1Z"/><path class="cls-1" d="M68.29,33.4h0v2.86c0,.33-.48.47-.63.47s-.2-.07-.2-.22V31.2h.8l1.25,3.33h0V31.2h.83v5.06c0,.33-.48.47-.63.47s-.15,0-.19-.1Z"/><path class="cls-1" d="M93.79,36.26c0,.33-.47.47-.63.47s-.2-.07-.2-.22V31.2h.8l1.07,2.93h0l1.06-2.93h.8v5.06c0,.33-.48.47-.63.47s-.2-.07-.2-.22V33.37h0l-.75,2.16c-.06.19-.28.21-.38.21s-.1,0-.13-.06l-.79-2.31h0Z"/><path class="cls-1" d="M80.47,36.26l-.73-2.06a1.39,1.39,0,0,0,.72-1.38c0-1.07-.48-1.62-1.47-1.62H77.65v5.31c0,.15,0,.22.2.22s.63-.14.63-.47v-1.7c0-.12.11-.19.3-.19H79l.75,2.26c0,.08.08.1.18.1S80.58,36.56,80.47,36.26ZM79,33.67h-.47V32.14c0-.12.11-.2.3-.2h.13c.61,0,.71.31.71.87S79.54,33.67,79,33.67Z"/></g></g></svg>