<svg xmlns="http://www.w3.org/2000/svg" viewBox="0 0 25.02 23.22"><defs><style>.cls-1{fill:#696a6c;}</style></defs><g id="Layer_2" data-name="Layer 2"><g id="レイヤー_3" data-name="レイヤー 3"><path class="cls-1" d="M21.19,23.22H16.26a.65.65,0,0,1-.65-.65V15.93H9.42v6.64a.66.66,0,0,1-.66.65H3.83a.66.66,0,0,1-.66-.65v-10h-2a1.15,1.15,0,0,1-.77-2L11.74.3h0a1.14,1.14,0,0,1,1.54,0L24.64,10.54A1.15,1.15,0,0,1,25,11.81a1.16,1.16,0,0,1-1.08.73h-2v10A.65.65,0,0,1,21.19,23.22Zm-4.27-1.31h3.62v-10a.65.65,0,0,1,.65-.65h2.25L12.51,1.37,1.58,11.23H3.83a.66.66,0,0,1,.66.65v10H8.1V15.77a1.15,1.15,0,0,1,1.15-1.15h6.52a1.15,1.15,0,0,1,1.15,1.15ZM12.63.75ZM12.17.24Z"/></g></g></svg>