<svg xmlns="http://www.w3.org/2000/svg" viewBox="0 0 34.12 34.12"><defs><style>.cls-1{fill:#696a6c;}</style></defs><g id="Layer_2" data-name="Layer 2"><g id="レイヤー_3" data-name="レイヤー 3"><path class="cls-1" d="M24.15,34.12H10a10,10,0,0,1-10-10V10A10,10,0,0,1,10,0H24.15a10,10,0,0,1,10,10V24.15A10,10,0,0,1,24.15,34.12ZM10,3.18A6.81,6.81,0,0,0,3.18,10V24.15A6.8,6.8,0,0,0,10,30.94H24.15a6.8,6.8,0,0,0,6.79-6.79V10a6.8,6.8,0,0,0-6.79-6.8Z"/><circle class="cls-1" cx="26.18" cy="7.96" r="2.13" transform="translate(12.45 31.63) rotate(-76.8)"/><path class="cls-1" d="M17.06,25.88a8.82,8.82,0,1,1,8.82-8.82A8.83,8.83,0,0,1,17.06,25.88Zm0-14.46a5.64,5.64,0,1,0,5.64,5.64A5.65,5.65,0,0,0,17.06,11.42Z"/></g></g></svg>