<svg xmlns="http://www.w3.org/2000/svg" viewBox="0 0 21.63 21.63"><defs><style>.cls-1{fill:#fff;}</style></defs><g id="Layer_2" data-name="Layer 2"><g id="レイヤー_3" data-name="レイヤー 3"><path class="cls-1" d="M15.31,21.63h-9A6.33,6.33,0,0,1,0,15.31v-9A6.34,6.34,0,0,1,6.33,0h9a6.33,6.33,0,0,1,6.32,6.33v9A6.32,6.32,0,0,1,15.31,21.63ZM6.33,2A4.31,4.31,0,0,0,2,6.33v9a4.32,4.32,0,0,0,4.31,4.31h9a4.32,4.32,0,0,0,4.31-4.31v-9A4.32,4.32,0,0,0,15.31,2Z"/><circle class="cls-1" cx="16.6" cy="5.05" r="1.35"/><path class="cls-1" d="M10.82,16.41a5.59,5.59,0,1,1,5.59-5.59A5.59,5.59,0,0,1,10.82,16.41Zm0-9.17a3.58,3.58,0,1,0,3.57,3.58A3.59,3.59,0,0,0,10.82,7.24Z"/></g></g></svg>