<svg xmlns="http://www.w3.org/2000/svg" viewBox="0 0 18.59 20.99"><defs><style>.cls-1{fill:#696a6c;fill-rule:evenodd;}</style></defs><g id="Layer_2" data-name="Layer 2"><g id="レイヤー_3" data-name="レイヤー 3"><path class="cls-1" d="M8,9.24H5.51A1.44,1.44,0,0,1,5,9.18a1,1,0,0,1-.72-1,1,1,0,0,1,.72-1,1.69,1.69,0,0,1,.54-.06h1.6V5.51A1.69,1.69,0,0,1,7.17,5a1.06,1.06,0,0,1,2,0,1.44,1.44,0,0,1,.06.54V8a2.12,2.12,0,0,1,0,.44,1.09,1.09,0,0,1-.79.79,2.12,2.12,0,0,1-.44,0Zm8,9.1H2.66V6.64a.52.52,0,0,1,.15-.38L6.26,2.81a.52.52,0,0,1,.38-.15h9.3V18.34ZM.65,4.67A2.12,2.12,0,0,0,0,6c0,.08,0,.2,0,.32V19.52c0,.17,0,.26,0,.33A1.36,1.36,0,0,0,1.15,21h16.3a1.34,1.34,0,0,0,1.13-1.13,2.65,2.65,0,0,0,0-.33v-18a2.65,2.65,0,0,0,0-.33A1.34,1.34,0,0,0,17.45,0a2.22,2.22,0,0,0-.34,0H6.29L6,0a2.06,2.06,0,0,0-1.3.63l-4,4Z"/></g></g></svg>