<svg xmlns="http://www.w3.org/2000/svg" viewBox="0 0 115.25 39.87"><defs><style>.cls-1{fill:#ffff00;}.cls-2{fill:none;stroke:#ffff00;stroke-miterlimit:10;}</style></defs><g id="Layer_2" data-name="Layer 2"><g id="レイヤー_3" data-name="レイヤー 3"><path class="cls-1" d="M30.63,21a14.82,14.82,0,0,1-3.9,4.48c-1.31,1-3,2.12-4.71,2.14a3.31,3.31,0,0,1-2-.64,70.86,70.86,0,0,0-.31,7.29c0,.79-1.79-.14-1.8-.89a70.8,70.8,0,0,1,2.44-19.1c.23-.85,2,.18,1.8.9q-.73,2.71-1.24,5.47a10,10,0,0,1,.76-.7c.58-.46,2.15.84,1.45,1.4a6.06,6.06,0,0,0-2.42,4.26c0,.5.15.53.61.48a3.58,3.58,0,0,0,1-.26,11,11,0,0,0,2-1.08A13.24,13.24,0,0,0,29.76,18c.83-2.63.62-6.16-2.51-7s-6.35,1-8.83,2.65a16.08,16.08,0,0,0-3.33,2.94,11.8,11.8,0,0,0-1.25,1.8,6.73,6.73,0,0,0-.48,1,5,5,0,0,0-.25.79c.91,1-.4,1.36-1.09.59-1.47-1.64.16-3.84,1.3-5.23a18.61,18.61,0,0,1,5.17-4.21c3.44-2,7.86-3.09,11.21-.29C32.75,13.49,32.4,17.81,30.63,21Z"/><path class="cls-1" d="M41.73,21.43A37.71,37.71,0,0,1,39,24.35a8.88,8.88,0,0,1-2.68,2,2.17,2.17,0,0,1-2.74-1.67c-.27-1.36.5-3.11,1-4.37.31-.85,2.05.22,1.79.9a18.65,18.65,0,0,0-.88,3c0,.14-.05.28-.07.43a17.77,17.77,0,0,0,5.14-4C41.06,20.06,42.22,20.84,41.73,21.43ZM35.54,17a20.42,20.42,0,0,1,1-4.09c.29-.85,2,.21,1.8.9a19.81,19.81,0,0,0-.95,4.08C37.23,18.74,35.44,17.76,35.54,17Z"/><path class="cls-1" d="M51.88,19.76l-5.12,3.38c-1.32.87-2.95,2.23-4.63,1.54C39,23.41,41,17.49,44.29,18.75c.39.14,1,.5,1,1s-.39.57-.76.43c-1.29-.49-1.92,1.35-2.08,2.27s.14.86.25.83c1.43-.38,6.29-3.12,8.34-4.47C51.71,18.37,52.61,19.28,51.88,19.76Z"/><path class="cls-1" d="M57.8,5.17c-1.17,3.94-2.2,7.91-3.12,11.91.74-.87,1.67-1.67,2.67-1.43.46.12,1.08.63,1,1.16a5.14,5.14,0,0,1-2.61,4,3.48,3.48,0,0,0,2.51,2.27c.84.21-.26,1.94-1,1.75a4.18,4.18,0,0,1-3.16-3.36,10,10,0,0,0-.86,2.29.39.39,0,0,1-.45.32c-.58,0-1.48-.69-1.35-1.22,1.2-6.28,2.71-12.5,4.52-18.62C56.26,3.42,58,4.47,57.8,5.17Z"/><path class="cls-1" d="M89.15,3.23a143.09,143.09,0,0,0-3.66,14.68c-.28,1.68-.45,3.29.32,4.61.24.41-.09.67-.47.66a1.58,1.58,0,0,1-1.19-.84,4.92,4.92,0,0,1-.63-1.7A15.05,15.05,0,0,1,84,15.18c.23-1.08.47-2.15.73-3.22a47.7,47.7,0,0,1-8.92,10.38c-.33.29-1-.19-1.26-.4-1.07-1-.72-2.2-.36-3.43.45-1.55,1-3.08,1.49-4.6A58.22,58.22,0,0,0,78.29,5c.13-.73.22-1.47.29-2.21,0-.36,0-.73,0-1.09l-.39.25A18.13,18.13,0,0,0,75,4.78a21.45,21.45,0,0,0-2.61,3.6c-.62,1.09-2.09,3.33-1.19,4.52.24.32.29.73-.15.86s-1-.32-1.27-.65c-.93-1.23-.64-2.6-.07-3.92a20.76,20.76,0,0,1,5-7A8.45,8.45,0,0,1,77.6.09a2.26,2.26,0,0,1,2.66,1.34c.45,1.1.1,2.66-.07,3.8a48.35,48.35,0,0,1-2.25,8.35c-.47,1.38-1,2.75-1.39,4.13-.19.59-.37,1.17-.54,1.76A46.89,46.89,0,0,0,87.35,2.34c.09-.31.37-.37.69-.29h0C88.66,2.2,89.31,2.8,89.15,3.23Z"/><path class="cls-1" d="M100.23,11.31c-.4,2-2,4.75-4.14,5.1a1.64,1.64,0,0,1-1.24-.7,42.27,42.27,0,0,0-2.72,9.74c-.13.85-1.91-.15-1.79-.89Q91.54,17,92.75,9.38c.14-.84,1.92.15,1.8.9s-.21,1.32-.32,2a16.37,16.37,0,0,1,1.88-2.83c.84-1,1.83-1.85,3.12-1A2.69,2.69,0,0,1,100.23,11.31Zm-1.8-1.38-.19.18c-.16.16-.31.34-.45.51a16.17,16.17,0,0,0-1.65,2.45c-.32.58-.62,1.18-.91,1.78,1.61-.47,2.8-2.77,3.15-4.23A2.65,2.65,0,0,0,98.43,9.93Z"/><line class="cls-2" x1="114.8" y1="5.37" x2="104.2" y2="29.17"/><line class="cls-2" x1="0.4" y1="20.77" x2="14.8" y2="39.57"/></g></g></svg>