<svg xmlns="http://www.w3.org/2000/svg" viewBox="0 0 29.99 17.82"><defs><style>.cls-1{fill:#fff;}</style></defs><g id="Layer_2" data-name="Layer 2"><g id="レイヤー_3" data-name="レイヤー 3"><path class="cls-1" d="M0,5.79H.74a2.05,2.05,0,0,0,.34,1.08,1.36,1.36,0,0,0,1.14.53,1.41,1.41,0,0,0,1.09-.47,1.76,1.76,0,0,0,.38-1.16,1.33,1.33,0,0,0-.55-1.15,4.34,4.34,0,0,0-1.2-.51A3.24,3.24,0,0,1,.75,3.52,1.73,1.73,0,0,1,.2,2.13,2.31,2.31,0,0,1,.71.72,2,2,0,0,1,2.3,0,1.88,1.88,0,0,1,3.79.64,2.3,2.3,0,0,1,4.3,2.08H3.58a1.65,1.65,0,0,0-.33-.9,1.17,1.17,0,0,0-1-.44,1.28,1.28,0,0,0-1,.45A1.42,1.42,0,0,0,1,2.11a1.06,1.06,0,0,0,.55,1,5.56,5.56,0,0,0,1.2.48,3.62,3.62,0,0,1,1.2.63,1.89,1.89,0,0,1,.57,1.44,2.88,2.88,0,0,1-.54,1.74,2.14,2.14,0,0,1-1.79.81A2,2,0,0,1,.53,7.39,2.69,2.69,0,0,1,0,5.79Z"/><path class="cls-1" d="M6.46,4.45V8H5.72V.16h.74V3.71h3.83V.16H11V8h-.74V4.45Z"/><path class="cls-1" d="M16.3,0a3.87,3.87,0,0,1,2.94,1.3A4.24,4.24,0,0,1,20.3,4.09a4.19,4.19,0,0,1-1.08,2.79,4,4,0,0,1-3,1.29A3.88,3.88,0,0,1,13.3,6.88a4.28,4.28,0,0,1-1.07-2.81,4.1,4.1,0,0,1,1.1-2.81A3.94,3.94,0,0,1,16.3,0ZM13,4.09a3.42,3.42,0,0,0,.93,2.35,3.21,3.21,0,0,0,2.36,1,3.12,3.12,0,0,0,2.33-1,3.54,3.54,0,0,0,.89-2.35,3.33,3.33,0,0,0-.94-2.3,3.22,3.22,0,0,0-2.32-1,3.18,3.18,0,0,0-2.31,1A3.47,3.47,0,0,0,13,4.09Z"/><path class="cls-1" d="M23.35,6.67,25,.16h.69l1.59,6.48,2-6.48H30L27.53,8H26.9L25.31,1.57,23.68,8h-.6L20.63.16h.72Z"/><path class="cls-1" d="M1.7,14.09h.77a1.48,1.48,0,0,0,1.15-.5A1.55,1.55,0,0,0,4,12.54a1.63,1.63,0,0,0-.43-1.13,1.77,1.77,0,0,0-1.36-.51H.7v6.79H0V10.2H2.36a2.39,2.39,0,0,1,1.75.67,2.31,2.31,0,0,1,.67,1.69A2.49,2.49,0,0,1,4.34,14,1.75,1.75,0,0,1,3,14.75l1.83,2.94H3.91Z"/><path class="cls-1" d="M9.38,10.05a3.62,3.62,0,0,1,2.79,1.23,4,4,0,0,1,1,2.66,4,4,0,0,1-1,2.65,3.8,3.8,0,0,1-2.83,1.23,3.7,3.7,0,0,1-2.79-1.24,4,4,0,0,1-1-2.66,4,4,0,0,1,1-2.68A3.73,3.73,0,0,1,9.38,10.05ZM6.25,13.94a3.25,3.25,0,0,0,.88,2.23,3.08,3.08,0,0,0,2.25,1,2.94,2.94,0,0,0,2.22-1,3.38,3.38,0,0,0,.84-2.23,3.18,3.18,0,0,0-.9-2.19,3,3,0,0,0-4.4,0A3.26,3.26,0,0,0,6.25,13.94Z"/><path class="cls-1" d="M17.88,10.05a3.64,3.64,0,0,1,2.8,1.23,4.08,4.08,0,0,1,1,2.66,4,4,0,0,1-1,2.65,3.82,3.82,0,0,1-2.84,1.23A3.7,3.7,0,0,1,15,16.58a4,4,0,0,1-1-2.66,4,4,0,0,1,1-2.68A3.76,3.76,0,0,1,17.88,10.05Zm-3.12,3.89a3.25,3.25,0,0,0,.88,2.23,3,3,0,0,0,2.24,1,2.94,2.94,0,0,0,2.22-1A3.44,3.44,0,0,0,21,13.9a3.18,3.18,0,0,0-.9-2.19,3.06,3.06,0,0,0-2.21-1,3,3,0,0,0-2.19,1A3.26,3.26,0,0,0,14.76,13.94Z"/><path class="cls-1" d="M22.61,17.69V10.2h1.08l2.6,6.55,2.62-6.55H30v7.49h-.7V11l-2.68,6.68H26L23.31,11v6.73Z"/></g></g></svg>