<svg xmlns="http://www.w3.org/2000/svg" viewBox="0 0 607.79 129.28"><defs><style>.cls-1{fill:#696a6c;stroke:#fff;stroke-linecap:round;stroke-linejoin:round;stroke-width:3px;}.cls-2{fill:#fff;}</style></defs><g id="Layer_2" data-name="Layer 2"><g id="レイヤー_3" data-name="レイヤー 3"><rect class="cls-1" x="1.5" y="1.5" width="604.79" height="126.28" rx="11.73"/></g><g id="レイヤー_11" data-name="レイヤー 11"><path class="cls-2" d="M110.07,92.1a5.44,5.44,0,0,0,3.72-1.41l-18-18-1.25.9c-1.35,1-2.44,1.77-3.28,2.32a19.9,19.9,0,0,1-3.36,1.71,10.25,10.25,0,0,1-3.9.87h-.07A10.25,10.25,0,0,1,80,77.6a19.76,19.76,0,0,1-3.35-1.71c-.84-.55-1.94-1.33-3.29-2.32-.37-.28-.79-.58-1.24-.9l-18,18a5.48,5.48,0,0,0,3.73,1.41Z"/><path class="cls-2" d="M55.72,61.32a18.74,18.74,0,0,1-3.58-3.09V85.65L68,69.77Q63.25,66.44,55.72,61.32Z"/><path class="cls-2" d="M112.2,61.32q-7.26,4.91-12.33,8.45l15.88,15.88V58.23A19.36,19.36,0,0,1,112.2,61.32Z"/><path class="cls-2" d="M110.07,42.12H57.82A5.06,5.06,0,0,0,53.61,44a7.18,7.18,0,0,0-1.47,4.62,8.29,8.29,0,0,0,2,4.84,17.45,17.45,0,0,0,4.15,4.1q1.21.85,7.28,5.06l5.72,4,3.58,2.51.53.38,1,.7c.77.56,1.41,1,1.91,1.35s1.13.73,1.85,1.15a10.27,10.27,0,0,0,2,1,5.46,5.46,0,0,0,1.78.32H84a5.45,5.45,0,0,0,1.77-.32,10.27,10.27,0,0,0,2-1c.73-.42,1.34-.81,1.85-1.15s1.15-.79,1.92-1.35l1-.7.54-.38,3.59-2.5,13-9A16.77,16.77,0,0,0,114,53.16a9.39,9.39,0,0,0,1.74-5.36,5.74,5.74,0,0,0-5.68-5.68Z"/><path class="cls-2" d="M134.18,64.54a13.11,13.11,0,0,0-2,.13V61.94a11.88,11.88,0,0,0,2,.13h1.17V60a18.18,18.18,0,0,0-.13-2.6h3a16.47,16.47,0,0,0-.13,2.57v2.11h1a14.45,14.45,0,0,0,1.53-.08v2.65a10.38,10.38,0,0,0-1.56-.1h-.93v3.84c1-.33,1.32-.44,2.47-.85V70c-1.17.47-1.38.55-2.47.94v7.25c0,1.74-.89,2.42-3.25,2.42-.58,0-1.3,0-2.08-.08a10.2,10.2,0,0,0-.6-2.73,17.81,17.81,0,0,0,2.37.18c.7,0,.83-.13.83-.75V71.89c-1,.34-1,.34-1.77.55a7.07,7.07,0,0,0-1.07.39L132,70a16.34,16.34,0,0,0,3.38-.78V64.54Zm5.09,12.61c.84.07,1.82.13,3,.13h10.2a24.09,24.09,0,0,0,2.93-.16V80a25.25,25.25,0,0,0-3-.16H142.26c-1.3,0-2.15.06-3,.13ZM144,74.81c-.93,0-1.82,0-2.57.07.05-.57.08-1.3.08-2.39V61.13c0-1.25,0-2-.08-2.73a21.24,21.24,0,0,0,2.63.1h6.91a22.62,22.62,0,0,0,2.73-.1,30.35,30.35,0,0,0-.1,3.07V72c0,1.3,0,2,.1,2.93-.62,0-1.51-.07-2.6-.07Zm.21-9.39h6.61V61h-6.61Zm0,6.92h6.61V67.86h-6.61Z"/><path class="cls-2" d="M170.73,59.75a15.88,15.88,0,0,0-.16-2.52h3.17a16.61,16.61,0,0,0-.15,2.52v6.81h6.5a11.48,11.48,0,0,0,2-.13,16.94,16.94,0,0,0-.11,2.16V78a22.23,22.23,0,0,0,.16,2.89h-2.94V79.64H164.49a18.33,18.33,0,0,0-2.76.16V76.91a16.85,16.85,0,0,0,2.65.13h14.88V74.31h-14.1a19.08,19.08,0,0,0-2.44.11V71.58a18,18,0,0,0,2.47.11h14.07V69.22H164.54a24.05,24.05,0,0,0-2.6.1V66.43a18.65,18.65,0,0,0,2.65.13h6.14Zm-6.27-1.32a30.88,30.88,0,0,1,4,6.24l-2.52,1.48A28.29,28.29,0,0,0,162,59.8ZM182.3,59.6a30.68,30.68,0,0,1-4,6.57L176,64.69a21.73,21.73,0,0,0,3.65-6.34Z"/><path class="cls-2" d="M196.28,67.81a32.67,32.67,0,0,1,4,3.33,28.17,28.17,0,0,0,6.5-6.86h-16.1V61.34H209.2l1.88,2.21a35.15,35.15,0,0,1-8.76,9.72,39.9,39.9,0,0,1,3,3.75l-2.65,2.1a41.59,41.59,0,0,0-8.45-9.23Z"/><path class="cls-2" d="M230.78,80.19h-3.07V72.34a38.42,38.42,0,0,1-7.12,3.12L219,72.93c6.47-1.92,11.36-5.09,14.14-8.5h-12V61.75h6.56v-4h3.12v4H236l1.48,2.16a28.35,28.35,0,0,1-5.18,5.33,36.16,36.16,0,0,1,7.75,4.45l-1.79,2.49a45,45,0,0,0-7.49-4.73Z"/><path class="cls-2" d="M268.37,67.29v3.28h-20.9V67.29Z"/><path class="cls-2" d="M278.17,65.08a28.82,28.82,0,0,1,6.63,3.33l-1.59,2.81a38.4,38.4,0,0,0-6.5-3.51Zm-.86,11.39c8.14-1.2,13.76-4.65,17.21-12.25l2.71,2c-3.77,8-10.27,11.94-19,13.44Zm3-17.42a26.72,26.72,0,0,1,6.45,3.28l-1.56,2.75a33.47,33.47,0,0,0-6.37-3.43ZM292.86,58a19.19,19.19,0,0,1,2,4.47l-1.9.68a18.51,18.51,0,0,0-1.92-4.58Zm3-1A16.18,16.18,0,0,1,298,61.39l-1.89.65a16.39,16.39,0,0,0-1.95-4.47Z"/><path class="cls-2" d="M316.15,79.85l-2.86.49-2.16-11.1-4.91.73-.36-2.73,4.75-.68-.93-4.73,2.91-.47.91,4.79,9.2-1.3,1.41,1.82A19.66,19.66,0,0,1,319,74L317,72.21a15.37,15.37,0,0,0,3.49-4.37l-6.45,1Z"/><path class="cls-2" d="M354.16,67.29v3.28H333.25V67.29Z"/><path class="cls-2" d="M364.37,59a8.7,8.7,0,0,1,2.37.34,69.35,69.35,0,0,0-1.22,12.35,60.74,60.74,0,0,0,.62,7.44,8.84,8.84,0,0,1-2.29.31c-.31,0-.6,0-.86,0a61.74,61.74,0,0,1-.54-7.67A68.45,68.45,0,0,1,363.7,59,4.79,4.79,0,0,1,364.37,59Zm18,17.73c0,.26,0,.52-.05.73a32.07,32.07,0,0,1-6.06.55c-4.47,0-6.5-1.64-6.89-5.15a4.89,4.89,0,0,1,2.55-.83c.57,2.42,1.92,3,4.37,3a27.59,27.59,0,0,0,5.64-.6A6.18,6.18,0,0,1,382.39,76.7Zm-4.81-15.8a33.29,33.29,0,0,1,3.77.2,5.49,5.49,0,0,1,.1,1.2,7.55,7.55,0,0,1-.2,1.77,29,29,0,0,0-3.62-.18,36.88,36.88,0,0,0-6.76.62,7,7,0,0,1-.31-2.21,4.72,4.72,0,0,1,0-.65A31.64,31.64,0,0,1,377.58,60.9Z"/><path class="cls-2" d="M399.31,68.51a16.38,16.38,0,0,1,4.71-.7c4.29,0,6.94,2.47,6.94,5.57,0,3.64-2.42,5.92-6.34,5.92a13,13,0,0,1-1.77-.1l-.6-3a11.82,11.82,0,0,0,2.13.21c2.08,0,3.41-.91,3.41-3,0-1.56-1.07-2.84-3.82-2.84a13.81,13.81,0,0,0-4.66.78V77c0,2.37-1.22,3.25-2.78,3.25A6.64,6.64,0,0,1,392.66,79a4.28,4.28,0,0,1-2.29-3.44c0-1.61,1-3.92,6.06-6.18V65.13c-1.75.16-3.51.24-5.07.24a6.8,6.8,0,0,1-.16-1.54,8.41,8.41,0,0,1,.1-1.35c1.59,0,3.36-.08,5.13-.21,0-1.45-.06-2.91-.11-4.36a8.52,8.52,0,0,1,1.54-.13,8.84,8.84,0,0,1,1.56.13c-.06,1.35-.08,2.73-.11,4.1,1.43-.15,2.76-.36,3.9-.59a7,7,0,0,1,.37,2.34v.41c-1.25.26-2.73.5-4.27.68Zm-2.88,3.77c-2.58,1.41-3.05,2.32-3.05,3.07,0,.42.26.78,1,1.2a3,3,0,0,0,1.48.52c.41,0,.6-.16.6-.68Zm15.91-8.52a6.61,6.61,0,0,1-1.95,2.36,18.58,18.58,0,0,0-5.28-3.92,6.39,6.39,0,0,1,1.67-2.27A18.6,18.6,0,0,1,412.34,63.76Z"/><path class="cls-2" d="M421.56,77.51a22.29,22.29,0,0,0,.16,3.15h-3a22.8,22.8,0,0,0,.16-3.15V60.79a27,27,0,0,0-.11-2.86,22.57,22.57,0,0,0,2.6.11h4.5a20.83,20.83,0,0,0,2.6-.11c-.05.81-.08,1.38-.08,2.37v4.24c0,1.14,0,1.74.05,2.28-.59,0-1.48-.07-2.34-.07h-4.55Zm0-16.07h4.35V60.12h-4.35Zm0,3.33h4.35V63.39h-4.35Zm12.87,10.06a16.43,16.43,0,0,0,.08,1.74c-.54,0-1.06-.07-1.82-.07H427v1.71h-2.7a21.68,21.68,0,0,0,.13-2.47V70.28c0-.67,0-1.25-.08-1.79.57.05,1.15.08,1.9.08h6.27c.8,0,1.45,0,2-.08a17.48,17.48,0,0,0-.08,1.77ZM427,74.18h4.84V70.85H427Zm13.16,3.38c0,1.41-.23,2.06-.88,2.45a5.25,5.25,0,0,1-2.71.41c-.39,0-.67,0-2.36-.1a10.21,10.21,0,0,0-.71-2.71,23.07,23.07,0,0,0,3.12.24c.73,0,.86-.11.86-.65V66.77h-4.94c-.83,0-1.74,0-2.34,0,0-.67.08-1.19.08-2.28V60.3c0-1,0-1.61-.08-2.37a22,22,0,0,0,2.6.11h4.86a22.46,22.46,0,0,0,2.6-.11c-.07.83-.1,1.61-.1,2.84Zm-7.36-16.12h4.68V60.12h-4.68Zm0,3.33h4.68V63.39h-4.68Z"/><path class="cls-2" d="M459.18,72.34c-1.17,5.09-2.81,6.47-4.86,6.47-1.43,0-2.86-.65-4.08-2.89-1.41-2.62-2.13-7.22-2.13-15.8a8.81,8.81,0,0,1,1.5-.11,11.56,11.56,0,0,1,1.72.13c-.05,1.22-.05,2.34-.05,3.23,0,5,.49,8.42,1.61,10.68.55,1.07,1,1.28,1.43,1.28s1.2-.37,2.21-4.84Zm4.92-10.59A25.2,25.2,0,0,1,469.69,73a7.62,7.62,0,0,1-3.07,1.15A26.66,26.66,0,0,0,461.5,63,5.45,5.45,0,0,1,464.1,61.75Z"/><path class="cls-2" d="M480.11,65.71a28.18,28.18,0,0,1-4.06,2.15,10,10,0,0,0-1.48-2.6A24.15,24.15,0,0,0,481,61.57a17.42,17.42,0,0,0,4-4.26h3a16.32,16.32,0,0,0,4.29,4.31,23.78,23.78,0,0,0,6.5,3.51,12.71,12.71,0,0,0-1.4,2.81,25,25,0,0,1-4.16-2.26v1.79a20.19,20.19,0,0,0-2.29-.1h-8.74a20.89,20.89,0,0,0-2.18.1Zm-2.06,14.87a18.91,18.91,0,0,0,.16-2.68V72a17.89,17.89,0,0,0-.13-2.5c.57,0,1.2.08,2.21.08H493c1,0,1.61,0,2.21-.08a17.1,17.1,0,0,0-.13,2.5v6a17.44,17.44,0,0,0,.16,2.65h-3V79.3H481.1v1.28Zm3.05-3.77h11.12V72H481.1ZM491,64.72h.86a22.84,22.84,0,0,1-5.23-5,18,18,0,0,1-5,5H491Z"/><path class="cls-2" d="M509.4,58.09a10.43,10.43,0,0,1,1.3-.08,9.71,9.71,0,0,1,1.82.16c-.13,2.67-.2,5.27-.26,7.77a10.93,10.93,0,0,1,7.13-3,6.44,6.44,0,0,1,6.81,6.81c0,4.68-2.78,7.8-8.84,8.87L516,75.72c5.38-.86,7-2.86,7-6a3.58,3.58,0,0,0-3.7-3.85c-2.28,0-4.73,1.17-7.07,3.59v2c0,3,0,5.72.08,8.45a12.33,12.33,0,0,1-1.79.13,11.71,11.71,0,0,1-1.36-.08l.11-7.82c-1.15,1.35-2.34,2.8-3.46,4.26a6,6,0,0,1-2-2,64.38,64.38,0,0,0,5.49-7.72V66.2l-4.39.65a8.1,8.1,0,0,1-.29-2.26,4.5,4.5,0,0,1,0-.65c1.56-.16,3.12-.37,4.7-.6Z"/><path class="cls-2" d="M543.25,70.75a15.4,15.4,0,0,0,2.68.23c.83,0,1.35-.33,1.4-1.71,0-.83.06-1.67.08-2.52-1.95.1-5,.31-7.28.46,0,1.07,0,2.08,0,3a46,46,0,0,0,.18,4.63c.13,1.38,1,2,3.51,2a33.13,33.13,0,0,0,8.14-1,5.7,5.7,0,0,1,.54,2.42,5.62,5.62,0,0,1-.05.7,40.72,40.72,0,0,1-8.53.8c-4.6,0-6.47-1.37-6.71-4.23-.1-1.33-.18-2.94-.18-5.23V67.45l-4.73.39a12,12,0,0,1-.13-1.74,10.22,10.22,0,0,1,.08-1.28l4.78-.31V59.18a10.19,10.19,0,0,1,1.61-.13,11.57,11.57,0,0,1,1.69.13c0,1.85-.1,3.56-.13,5.15,2.4-.16,4.84-.29,7.26-.42,0-1.82,0-3.66-.11-5.59a11.47,11.47,0,0,1,1.69-.13,8.93,8.93,0,0,1,1.49.11c-.06,2-.08,3.66-.08,5.46,1.71-.11,3.43-.19,5.07-.26a8.22,8.22,0,0,1,.15,1.58,6.6,6.6,0,0,1-.1,1.3c-1.66.05-3.38.13-5.12.21,0,1,0,2-.08,2.91-.1,3.07-1.56,4.24-4.11,4.24a19.91,19.91,0,0,1-2.52-.13Z"/></g></g></svg>