<svg xmlns="http://www.w3.org/2000/svg" viewBox="0 0 32.65 32.65"><defs><style>.cls-1{fill:#696a6c;}</style></defs><g id="Layer_2" data-name="Layer 2"><g id="レイヤー_3" data-name="レイヤー 3"><path class="cls-1" d="M28.77,0H3.89A3.89,3.89,0,0,0,0,3.89V28.77a3.89,3.89,0,0,0,3.89,3.88H28.77a3.88,3.88,0,0,0,3.88-3.88V3.89A3.89,3.89,0,0,0,28.77,0M25.66,14.25l-.53,0a5.84,5.84,0,0,1-4.88-2.63v9A6.63,6.63,0,1,1,13.62,14h0L14,14v3.27a2.71,2.71,0,0,0-.41,0,3.38,3.38,0,1,0,0,6.76,3.46,3.46,0,0,0,3.52-3.34l0-15.23H20.3a5.82,5.82,0,0,0,5.36,5.2v3.63"/></g></g></svg>