<svg xmlns="http://www.w3.org/2000/svg" viewBox="0 0 1000.06 999.56"><defs><style>.cls-1{fill:#696a6c;}</style></defs><g id="Layer_2" data-name="Layer 2"><g id="レイヤー_12" data-name="レイヤー 12"><path class="cls-1" d="M601.13,66.07l15.52-52.66,7.61,2.24,3.57,51.53.15,0,30.65-41.45L666.17,28,650.65,80.66l-5-1.46,13.84-47-.14,0-31.1,41.87-4.69-1.38-3.49-52.07-.15,0-13.84,47Z"/><path class="cls-1" d="M675.77,61A37.69,37.69,0,0,1,682,51.45a27.25,27.25,0,0,1,8.27-6.29,23,23,0,0,1,9.81-2.28A24.6,24.6,0,0,1,711,45.41a26.51,26.51,0,0,1,9.25,6.78,22.87,22.87,0,0,1,4.72,9,26.83,26.83,0,0,1,.53,10.43,38,38,0,0,1-3.3,11A37,37,0,0,1,716,92a27.07,27.07,0,0,1-8.25,6.25,22.74,22.74,0,0,1-9.88,2.26,28.29,28.29,0,0,1-20.19-9.4,22.84,22.84,0,0,1-4.63-9,26.7,26.7,0,0,1-.5-10.32A37.9,37.9,0,0,1,675.77,61Zm12.92,32.93a19.44,19.44,0,0,0,9.19,2,18.35,18.35,0,0,0,8-2.2,22.85,22.85,0,0,0,6.61-5.51,35.86,35.86,0,0,0,5-7.86,34.41,34.41,0,0,0,3-9.9,22.13,22.13,0,0,0-.43-8.73,17.43,17.43,0,0,0-3.81-7.16,21,21,0,0,0-7-5.13,19.07,19.07,0,0,0-9.13-2,18.55,18.55,0,0,0-8,2.27,23.15,23.15,0,0,0-6.61,5.54,37,37,0,0,0-7.83,16.8,22.78,22.78,0,0,0,0,8.6,18,18,0,0,0,3.48,7.51A20,20,0,0,0,688.69,93.92Z"/><path class="cls-1" d="M741.27,96.76l-13.47,21-4.32-2.86,29.6-46.15,18.11,11.61q7.63,4.91,9.84,10.35t-1.9,11.87a14.38,14.38,0,0,1-6.21,5.8,16,16,0,0,1-8.55.68,8.49,8.49,0,0,1,1.89,4.11,10.62,10.62,0,0,1-.24,4.19,18.66,18.66,0,0,1-1.61,4.14q-1.08,2-2.16,3.86c-1.09,1.78-1.94,3.29-2.58,4.51a31.85,31.85,0,0,0-1.42,3.07,8,8,0,0,0-.55,2,3.1,3.1,0,0,0,.17,1.43l-.24.38-4.86-3a10,10,0,0,1,1.07-3.85q1-2.23,2.31-4.59t2.54-4.53a30.58,30.58,0,0,0,1.87-3.69,8.53,8.53,0,0,0,.66-3.79,6.83,6.83,0,0,0-1-3,10.52,10.52,0,0,0-2.24-2.52,27.07,27.07,0,0,0-3-2.19Zm16,5a22.75,22.75,0,0,0,4.86,2.39,12.14,12.14,0,0,0,4.67.69,9.68,9.68,0,0,0,4.28-1.29,10.59,10.59,0,0,0,3.57-3.6,10.29,10.29,0,0,0,1.79-4.83,8.4,8.4,0,0,0-.82-4.24,12.59,12.59,0,0,0-2.73-3.65,26.53,26.53,0,0,0-4-3.08l-13.87-8.9L743.66,93Z"/><path class="cls-1" d="M769.73,146l35-42.33L832.85,127,830,130.37l-24.17-20-12.62,15.28,21.81,18-2.82,3.41-21.81-18-13.89,16.82,24.75,20.44-2.81,3.41Z"/><path class="cls-1" d="M827.16,198.46l41.64-35.78,23.06,26.83-3.35,2.89-19.68-22.91-15,12.92,17.89,20.82-3.35,2.89-17.9-20.83-19.89,17.1Z"/><path class="cls-1" d="M881.27,225.48l-20.66,14-2.84-4.34,45.42-30.7,12,17.81q5.09,7.53,5,13.4t-6.44,10.15a14.29,14.29,0,0,1-8,2.88,16.06,16.06,0,0,1-8.12-2.75,8.53,8.53,0,0,1,.12,4.52,10.81,10.81,0,0,1-1.88,3.76,18.56,18.56,0,0,1-3.11,3.16c-1.19,1-2.37,1.86-3.52,2.7q-2.55,1.82-4.14,3.12a33.45,33.45,0,0,0-2.53,2.26,8.14,8.14,0,0,0-1.31,1.67,3,3,0,0,0-.4,1.38l-.38.25L877.22,264a10.12,10.12,0,0,1,2.5-3.12q1.83-1.65,3.93-3.3c1.41-1.1,2.78-2.15,4.13-3.16a29,29,0,0,0,3.18-2.65,8.54,8.54,0,0,0,2.1-3.22,6.8,6.8,0,0,0,.29-3.18,10.65,10.65,0,0,0-1.06-3.2,28.29,28.29,0,0,0-1.88-3.19ZM894,236.39a22.49,22.49,0,0,0,3.51,4.12,12.41,12.41,0,0,0,4,2.48,9.62,9.62,0,0,0,4.43.5,10.68,10.68,0,0,0,4.71-1.89,10.38,10.38,0,0,0,3.55-3.74,8.35,8.35,0,0,0,.92-4.21,12.61,12.61,0,0,0-1.06-4.44,26.73,26.73,0,0,0-2.42-4.39l-9.23-13.65L884.93,223Z"/><path class="cls-1" d="M888,282l48.85-25.06,16.67,32.5-3.93,2-14.31-27.88-17.64,9,12.91,25.18-3.93,2-12.91-25.18-19.41,10,14.65,28.56-3.93,2Z"/><path class="cls-1" d="M910.55,328.21,962,309l12.79,34.22-4.15,1.55-11-29.36-18.57,6.94,9.9,26.5-4.14,1.55-9.9-26.51-20.43,7.64,11.23,30.07-4.14,1.55Z"/><path class="cls-1" d="M927.56,376.83l53.26-13.34,1.26,5-49,12.27,7.15,28.55L936,410.41Z"/><path class="cls-1" d="M968.67,435.85l28.43,12.87.81,6L964.57,439.1l-23.73,3.19-.69-5.13L963.5,434l28.44-23.6.8,5.89Z"/><path class="cls-1" d="M945.25,500.45l54.81,3.22-.46,7.92-49.4,15.13v.15l47.31,20.5-.46,7.84L942.23,552l.3-5.18,48.87,2.87v-.15L943.59,528.7l.29-4.88,49.93-15.17v-.15L945,505.63Z"/><path class="cls-1" d="M967.1,572a37.94,37.94,0,0,1,10.71,3.93,27,27,0,0,1,8,6.62,23,23,0,0,1,4.45,9,24.74,24.74,0,0,1,0,11.14,26.56,26.56,0,0,1-4.51,10.55,22.74,22.74,0,0,1-7.71,6.64,26.61,26.61,0,0,1-10,2.88,37.76,37.76,0,0,1-11.42-.72,37.21,37.21,0,0,1-10.6-3.89,27.23,27.23,0,0,1-8-6.62,23,23,0,0,1-4.44-9.11,28.3,28.3,0,0,1,4.57-21.8,22.86,22.86,0,0,1,7.73-6.56,26.69,26.69,0,0,1,9.94-2.82A38,38,0,0,1,967.1,572ZM938,592.06a19.57,19.57,0,0,0,.09,9.41,18.33,18.33,0,0,0,4,7.3,22.86,22.86,0,0,0,6.87,5.18,35.91,35.91,0,0,0,8.78,3,34.6,34.6,0,0,0,10.33.72,22.29,22.29,0,0,0,8.41-2.4,17.65,17.65,0,0,0,6.11-5.34,21,21,0,0,0,3.4-8,19,19,0,0,0-.15-9.34,18.53,18.53,0,0,0-4-7.31,23.11,23.11,0,0,0-6.9-5.19,36.82,36.82,0,0,0-18.13-3.8,23,23,0,0,0-8.37,2,18.06,18.06,0,0,0-6.52,5.1A20,20,0,0,0,938,592.06Z"/><path class="cls-1" d="M947.12,643.93l-23.49-8.37,1.81-4.86,51.65,18.39-7.21,20.26q-3,8.55-7.85,11.94t-12,.83a14.33,14.33,0,0,1-7.06-4.74,15.93,15.93,0,0,1-2.59-8.17,8.64,8.64,0,0,1-3.58,2.78,10.87,10.87,0,0,1-4.14.71,18.68,18.68,0,0,1-4.39-.63c-1.48-.4-2.9-.81-4.26-1.24-2-.65-3.63-1.14-5-1.48a29.15,29.15,0,0,0-3.32-.7,8.29,8.29,0,0,0-2.12-.07,3.05,3.05,0,0,0-1.34.5l-.44-.16,1.85-5.41a10.06,10.06,0,0,1,4,.16c1.61.33,3.27.74,5,1.21s3.38,1,5,1.46a28.62,28.62,0,0,0,4,1,8.53,8.53,0,0,0,3.84-.21,6.68,6.68,0,0,0,2.73-1.66,10.39,10.39,0,0,0,2-2.74,29.14,29.14,0,0,0,1.46-3.41Zm-1.25,16.71a22.35,22.35,0,0,0-1.23,5.27,12.16,12.16,0,0,0,.38,4.71,9.56,9.56,0,0,0,2.23,3.87,10.65,10.65,0,0,0,4.31,2.67,10.27,10.27,0,0,0,5.11.64,8.35,8.35,0,0,0,4-1.75,12.82,12.82,0,0,0,2.94-3.49,26.69,26.69,0,0,0,2.1-4.55l5.53-15.52-19.9-7.08Z"/><path class="cls-1" d="M905.58,682.78l49.12,24.53L938.38,740l-4-2,14-28-17.73-8.86-12.64,25.31-4-2,12.64-25.31-19.51-9.75-14.34,28.72-4-2Z"/><path class="cls-1" d="M890.58,765.9a37.64,37.64,0,0,1,8,8.16,27,27,0,0,1,4.36,9.43,23.09,23.09,0,0,1,.12,10.07,24.85,24.85,0,0,1-4.81,10.05,26.52,26.52,0,0,1-8.62,7.57,22.85,22.85,0,0,1-9.82,2.67,27,27,0,0,1-10.29-1.73,38.18,38.18,0,0,1-10-5.58,37.17,37.17,0,0,1-7.88-8.09,27.42,27.42,0,0,1-4.33-9.41,23,23,0,0,1-.07-10.14,28.24,28.24,0,0,1,13.53-17.68,22.75,22.75,0,0,1,9.8-2.58,26.53,26.53,0,0,1,10.19,1.74A37.92,37.92,0,0,1,890.58,765.9Zm-35,5.52a19.58,19.58,0,0,0-4,8.53,18.36,18.36,0,0,0,.42,8.29,22.94,22.94,0,0,0,4,7.63,35.37,35.37,0,0,0,6.61,6.55,34.45,34.45,0,0,0,9,5.11,22.18,22.18,0,0,0,8.63,1.46,17.41,17.41,0,0,0,7.81-2.18,21,21,0,0,0,6.52-5.76,19.14,19.14,0,0,0,3.91-8.49,18.56,18.56,0,0,0-.49-8.34,23.32,23.32,0,0,0-4-7.66,35.62,35.62,0,0,0-6.61-6.54,36.12,36.12,0,0,0-8.11-4.72,23.07,23.07,0,0,0-8.4-1.82,17.9,17.9,0,0,0-8.09,1.79A19.88,19.88,0,0,0,855.63,771.42Z"/><path class="cls-1" d="M841.54,822.15,823.93,804.5l3.73-3.61,38.72,38.82L851.15,854.9q-6.42,6.4-12.22,7.39t-11.19-4.41a14.31,14.31,0,0,1-4.33-7.31,16.11,16.11,0,0,1,1.17-8.49,8.56,8.56,0,0,1-4.42,1,10.79,10.79,0,0,1-4-1.14,18.53,18.53,0,0,1-3.69-2.46q-1.75-1.49-3.31-2.94-2.26-2.16-3.86-3.49a30.84,30.84,0,0,0-2.69-2,7.67,7.67,0,0,0-1.88-1,3.17,3.17,0,0,0-1.43-.14l-.33-.32,4-4.09a10,10,0,0,1,3.53,1.86q2,1.49,4,3.24t3.88,3.46a31.45,31.45,0,0,0,3.21,2.62,8.73,8.73,0,0,0,3.55,1.46,7,7,0,0,0,3.19-.32,11.08,11.08,0,0,0,2.94-1.64,31.46,31.46,0,0,0,2.78-2.45Zm-8.32,14.55a22,22,0,0,0-3.38,4.23,12.07,12.07,0,0,0-1.67,4.42,9.5,9.5,0,0,0,.34,4.45,10.77,10.77,0,0,0,2.74,4.26,10.25,10.25,0,0,0,4.34,2.78,8.31,8.31,0,0,0,4.31.12,12.5,12.5,0,0,0,4.16-1.89,26.11,26.11,0,0,0,3.86-3.2l11.66-11.63-14.92-15Z"/><path class="cls-1" d="M785.44,840.55l35,42.28-4,3.31-35-42.28Z"/><path class="cls-1" d="M760.6,889.1l2.46,3.68-19.51,13.07-15.79-23.57,3.67-2.46,5.22,7.79a26.23,26.23,0,0,1,.28-5.55,18.44,18.44,0,0,1,1.66-5.25,20.86,20.86,0,0,1,3.48-4.94,31.4,31.4,0,0,1,5.6-4.67,24.8,24.8,0,0,1,9-3.83,20.48,20.48,0,0,1,9.37.29,25.38,25.38,0,0,1,9.22,4.79,41.37,41.37,0,0,1,8.62,9.64,40,40,0,0,1,5,10.19A25.23,25.23,0,0,1,790,898.43a22.1,22.1,0,0,1-3.22,9.45,26.27,26.27,0,0,1-8.11,8.1,29.52,29.52,0,0,1-7.34,3.64,21.38,21.38,0,0,1-7.44,1.08,19.4,19.4,0,0,1-7.23-1.67,22.65,22.65,0,0,1-6.73-4.71l4.43-3a16,16,0,0,0,10.52,4.47,17.77,17.77,0,0,0,5.65-.75,19.63,19.63,0,0,0,5.36-2.54,21,21,0,0,0,6.67-6.76,17.09,17.09,0,0,0,2.33-8,23.45,23.45,0,0,0-1.55-9,45.22,45.22,0,0,0-4.94-9.49,27.79,27.79,0,0,0-5.95-6.48,22.14,22.14,0,0,0-7.27-3.86,18.38,18.38,0,0,0-16,2.54,21.77,21.77,0,0,0-3.52,3,17.78,17.78,0,0,0-4.66,8.67,17,17,0,0,0-.22,5.56,20,20,0,0,0,1.53,5.5,41,41,0,0,0,2.83,5.26Z"/><path class="cls-1" d="M710.56,891.35l25.76,48.48-4.58,2.43L706,893.78Z"/><path class="cls-1" d="M702.36,949.07l.14-.06-18.23-44.28,4.79-2L710,953.52l-5.43,2.24-47.6-32.27-.14.06,18.27,44.35-4.8,2-20.9-50.77,5.57-2.29Z"/><path class="cls-1" d="M638.08,923.11l-6.74,58.61-5.68,1.51-34.45-47.65,5.16-1.37,10.54,15,24.17-6.43,1.84-18.32Zm-7.55,24.42-20.79,5.53,17.81,25.09Z"/><path class="cls-1" d="M577.47,963.05l-3.34-24.71,5.15-.62,7.34,54.34-21.31,2.87q-9,1.22-14.2-1.5t-6.24-10.28a14.37,14.37,0,0,1,1-8.44,16.07,16.07,0,0,1,6.07-6.05,8.55,8.55,0,0,1-4.1-1.91,10.78,10.78,0,0,1-2.53-3.35,18.52,18.52,0,0,1-1.45-4.19c-.33-1.5-.62-2.94-.86-4.35q-.5-3.09-1-5.1a32.37,32.37,0,0,0-.9-3.26,7.86,7.86,0,0,0-.91-1.92,3,3,0,0,0-1.06-1l-.06-.46,5.66-.84a10.28,10.28,0,0,1,1.68,3.62c.44,1.58.85,3.25,1.21,5s.7,3.45,1,5.1a29.27,29.27,0,0,0,1,4,8.56,8.56,0,0,0,1.94,3.31,6.72,6.72,0,0,0,2.73,1.67,10.48,10.48,0,0,0,3.33.47,27.64,27.64,0,0,0,3.7-.26ZM562,969.6a22.71,22.71,0,0,0-5.24,1.32,12.22,12.22,0,0,0-4,2.51,9.53,9.53,0,0,0-2.42,3.75,10.63,10.63,0,0,0-.39,5.05,10.17,10.17,0,0,0,1.77,4.84,8.37,8.37,0,0,0,3.36,2.7,12.68,12.68,0,0,0,4.45,1,26.57,26.57,0,0,0,5-.22l16.32-2.2-2.83-20.94Z"/><path class="cls-1" d="M521.67,943.75,524,998.61l-5.18.21L516.49,944Z"/><path class="cls-1" d="M499.76,999.56,459.83,998l.18-4.42,17.37.7,2-50.44,5.18.2-2,50.44,17.37.7Z"/><path class="cls-1" d="M428.82,967.37l-20.33,23.68-6-.9,24.32-27.63,3.59-23.67,5.13.78L432,962.92l14.67,33.93-5.88-.89Z"/><path class="cls-1" d="M399.36,933.58l-15.47,52.68L376.28,984l-3.63-51.53-.14,0-30.62,41.47-7.54-2.21L349.82,919l5,1.46-13.8,47,.15,0,31.06-41.91,4.68,1.38,3.55,52.06.15.05,13.79-47Z"/><path class="cls-1" d="M324.74,938.75a38.2,38.2,0,0,1-6.24,9.54,27.29,27.29,0,0,1-8.27,6.3,23,23,0,0,1-9.81,2.29,24.59,24.59,0,0,1-10.85-2.52,26.66,26.66,0,0,1-9.26-6.77,22.74,22.74,0,0,1-4.72-9,26.63,26.63,0,0,1-.54-10.43,38,38,0,0,1,3.28-11,37.18,37.18,0,0,1,6.19-9.44,27.27,27.27,0,0,1,8.25-6.26,22.85,22.85,0,0,1,9.88-2.26,28.17,28.17,0,0,1,20.19,9.38,22.91,22.91,0,0,1,4.65,9,26.7,26.7,0,0,1,.5,10.32A38,38,0,0,1,324.74,938.75Zm-13-32.93a19.54,19.54,0,0,0-9.19-2,18.36,18.36,0,0,0-8,2.21,23,23,0,0,0-6.6,5.52,35.33,35.33,0,0,0-5,7.87,34.63,34.63,0,0,0-3,9.89,22.35,22.35,0,0,0,.44,8.74,17.63,17.63,0,0,0,3.82,7.16,21.24,21.24,0,0,0,7,5.12,19.09,19.09,0,0,0,9.14,2,18.56,18.56,0,0,0,8-2.28,23.35,23.35,0,0,0,6.61-5.55,35.33,35.33,0,0,0,5-7.87,36.06,36.06,0,0,0,2.85-8.93,23,23,0,0,0,0-8.6,17.9,17.9,0,0,0-3.5-7.51A20,20,0,0,0,311.78,905.82Z"/><path class="cls-1" d="M259.2,903l13.44-21,4.33,2.86-29.56,46.18L229.3,919.48q-7.65-4.9-9.86-10.34t1.89-11.88a14.32,14.32,0,0,1,6.21-5.8,16,16,0,0,1,8.54-.69,8.49,8.49,0,0,1-1.89-4.11,10.8,10.8,0,0,1,.23-4.19,18.66,18.66,0,0,1,1.61-4.14q1.08-2,2.16-3.87,1.62-2.67,2.57-4.51a30.77,30.77,0,0,0,1.42-3.07,7.9,7.9,0,0,0,.55-2,3.12,3.12,0,0,0-.18-1.43l.25-.38,4.86,3a10.15,10.15,0,0,1-1.06,3.85c-.69,1.49-1.45,3-2.31,4.59s-1.7,3.08-2.54,4.53a29.58,29.58,0,0,0-1.86,3.69,8.55,8.55,0,0,0-.66,3.79,6.76,6.76,0,0,0,1,3,10.47,10.47,0,0,0,2.23,2.52,29.43,29.43,0,0,0,3,2.18Zm-16-5a22.69,22.69,0,0,0-4.86-2.38,12.16,12.16,0,0,0-4.68-.69,9.66,9.66,0,0,0-4.27,1.3,10.59,10.59,0,0,0-3.57,3.6A10.27,10.27,0,0,0,224,904.7a8.38,8.38,0,0,0,.82,4.24,12.77,12.77,0,0,0,2.73,3.65,27.15,27.15,0,0,0,4,3.08l13.88,8.88,11.38-17.79Z"/><path class="cls-1" d="M230.67,853.79l-34.93,42.36-28.18-23.24,2.82-3.41,24.18,19.94,12.61-15.3-21.83-18,2.82-3.41,21.82,18,13.88-16.83-24.77-20.42,2.81-3.42Z"/><path class="cls-1" d="M173.22,801.44l-41.61,35.82-23.09-26.81,3.36-2.89,19.7,22.89,15-12.94-17.91-20.8,3.35-2.89L150,814.62l19.88-17.11Z"/><path class="cls-1" d="M119.07,774.46l20.64-14,2.85,4.34-45.4,30.75L85.1,777.75q-5.09-7.5-5-13.39t6.43-10.16a14.28,14.28,0,0,1,8-2.88,16,16,0,0,1,8.12,2.74,8.42,8.42,0,0,1-.11-4.52,10.79,10.79,0,0,1,1.87-3.76,18.56,18.56,0,0,1,3.11-3.16c1.19-1,2.36-1.87,3.51-2.71q2.55-1.81,4.14-3.13a27.79,27.79,0,0,0,2.52-2.26,7.27,7.27,0,0,0,1.31-1.67,3.06,3.06,0,0,0,.41-1.37l.37-.26,3.28,4.69a10.12,10.12,0,0,1-2.5,3.12q-1.83,1.65-3.93,3.31t-4.12,3.16a31.31,31.31,0,0,0-3.18,2.65,8.87,8.87,0,0,0-2.1,3.22,6.83,6.83,0,0,0-.28,3.19,10.74,10.74,0,0,0,1.06,3.2,28.67,28.67,0,0,0,1.89,3.19Zm-12.73-10.91a22.45,22.45,0,0,0-3.52-4.11,12.1,12.1,0,0,0-4-2.47,9.62,9.62,0,0,0-4.43-.5,10.55,10.55,0,0,0-4.7,1.9,10.13,10.13,0,0,0-3.55,3.74,8.33,8.33,0,0,0-.92,4.21,12.63,12.63,0,0,0,1.07,4.44,26.4,26.4,0,0,0,2.42,4.39l9.24,13.63,17.49-11.84Z"/><path class="cls-1" d="M112.32,718,63.5,743.08,46.79,710.59l3.94-2,14.33,27.87,17.63-9.06L69.75,702.22l3.94-2,12.93,25.16,19.4-10L91.34,686.83l3.93-2Z"/><path class="cls-1" d="M89.68,671.74,38.27,691,25.45,656.8l4.14-1.55,11,29.35,18.57-7-9.93-26.49,4.14-1.55,9.93,26.49,20.42-7.65L72.46,638.38l4.14-1.56Z"/><path class="cls-1" d="M72.63,623.14l-53.25,13.4-1.26-5,48.95-12.32-7.18-28.55,4.29-1.07Z"/><path class="cls-1" d="M31.46,564.16,3,551.32l-.81-6,33.36,15.57,23.73-3.22.69,5.14L36.63,566,8.21,589.64l-.8-5.9Z"/><path class="cls-1" d="M54.81,499.55,0,496.39l.46-7.92,49.38-15.18v-.15L2.52,452.69,3,444.85,57.79,448l-.3,5.18L8.61,450.37v.15l47.84,20.79-.28,4.87L6.25,491.4v.15l48.87,2.82Z"/><path class="cls-1" d="M32.89,428a37.61,37.61,0,0,1-10.71-3.91,27,27,0,0,1-8-6.62,23.06,23.06,0,0,1-4.46-9,24.6,24.6,0,0,1,0-11.14,26.48,26.48,0,0,1,4.49-10.55,22.73,22.73,0,0,1,7.7-6.65,26.81,26.81,0,0,1,10-2.9,38.4,38.4,0,0,1,11.42.71,37.1,37.1,0,0,1,10.6,3.89,27,27,0,0,1,8,6.61,22.8,22.8,0,0,1,4.45,9.1,28.17,28.17,0,0,1-4.55,21.8,22.86,22.86,0,0,1-7.72,6.57,26.46,26.46,0,0,1-9.93,2.83A37.74,37.74,0,0,1,32.89,428ZM62,407.94a19.44,19.44,0,0,0-.1-9.41,18.31,18.31,0,0,0-4-7.29,22.83,22.83,0,0,0-6.87-5.17,35.41,35.41,0,0,0-8.79-3A34.56,34.56,0,0,0,32,382.31a22.36,22.36,0,0,0-8.41,2.42,17.53,17.53,0,0,0-6.1,5.35,21,21,0,0,0-3.38,8,19,19,0,0,0,.15,9.34,18.41,18.41,0,0,0,4.05,7.31,23.21,23.21,0,0,0,6.9,5.18A35.29,35.29,0,0,0,34,423a35.65,35.65,0,0,0,9.35.75,22.92,22.92,0,0,0,8.36-2,18,18,0,0,0,6.52-5.1A19.94,19.94,0,0,0,62,407.94Z"/><path class="cls-1" d="M52.8,356.08l23.5,8.34-1.81,4.86L22.82,350.94,30,330.68q3-8.55,7.84-11.95t12-.84a14.44,14.44,0,0,1,7.06,4.73,16,16,0,0,1,2.6,8.17A8.52,8.52,0,0,1,63.09,328a10.85,10.85,0,0,1,4.13-.71,18.16,18.16,0,0,1,4.39.62q2.22.58,4.26,1.23,3,1,5,1.48a31,31,0,0,0,3.31.69,7.47,7.47,0,0,0,2.12.07,3.14,3.14,0,0,0,1.35-.49l.43.15-1.84,5.41a9.88,9.88,0,0,1-4-.16c-1.61-.32-3.27-.73-5-1.2s-3.38-1-5-1.45a30.85,30.85,0,0,0-4-1,8.68,8.68,0,0,0-3.84.21,6.79,6.79,0,0,0-2.73,1.66,10.62,10.62,0,0,0-1.95,2.75,29.1,29.1,0,0,0-1.45,3.41ZM54,339.37a22.31,22.31,0,0,0,1.22-5.27,12.19,12.19,0,0,0-.39-4.72,9.59,9.59,0,0,0-2.23-3.86,10.53,10.53,0,0,0-4.31-2.66,10.31,10.31,0,0,0-5.12-.65A8.47,8.47,0,0,0,39.27,324a12.62,12.62,0,0,0-2.93,3.49A26.66,26.66,0,0,0,34.23,332l-5.5,15.53,19.9,7.06Z"/><path class="cls-1" d="M94.31,317.18,45.16,292.7,61.45,260l4,2-14,28,17.75,8.84,12.61-25.32,4,2L73.14,300.85l19.52,9.72L107,281.83l4,2Z"/><path class="cls-1" d="M109.22,234.06a37.25,37.25,0,0,1-8-8.15,27.19,27.19,0,0,1-4.37-9.42,23.14,23.14,0,0,1-.12-10.08,24.8,24.8,0,0,1,4.79-10,26.56,26.56,0,0,1,8.62-7.58A22.82,22.82,0,0,1,120,186.1a27,27,0,0,1,10.3,1.72,38.42,38.42,0,0,1,10,5.57,37.18,37.18,0,0,1,7.89,8.08,27.24,27.24,0,0,1,4.33,9.41,22.76,22.76,0,0,1,.09,10.13,28.22,28.22,0,0,1-13.52,17.7,22.69,22.69,0,0,1-9.79,2.59,26.71,26.71,0,0,1-10.19-1.73A37.59,37.59,0,0,1,109.22,234.06Zm34.94-5.55a19.61,19.61,0,0,0,4-8.53,18.39,18.39,0,0,0-.43-8.3,23,23,0,0,0-4-7.63,35.94,35.94,0,0,0-6.61-6.54,34.73,34.73,0,0,0-9-5.1,22.2,22.2,0,0,0-8.63-1.45,17.52,17.52,0,0,0-7.81,2.19,21,21,0,0,0-6.52,5.77,19.09,19.09,0,0,0-3.89,8.49,18.56,18.56,0,0,0,.49,8.34,23.4,23.4,0,0,0,4,7.65,37,37,0,0,0,14.73,11.25,23.14,23.14,0,0,0,8.41,1.81,18,18,0,0,0,8.08-1.79A20.12,20.12,0,0,0,144.16,228.51Z"/><path class="cls-1" d="M158.19,177.76l17.63,17.63L172.1,199l-38.76-38.78L148.55,145q6.42-6.41,12.22-7.41T172,142a14.3,14.3,0,0,1,4.34,7.31,16,16,0,0,1-1.16,8.49,8.58,8.58,0,0,1,4.42-1,10.89,10.89,0,0,1,4,1.14,18.33,18.33,0,0,1,3.69,2.45q1.76,1.48,3.31,2.94,2.27,2.16,3.86,3.48c1.06.88,2,1.56,2.69,2.05a8.08,8.08,0,0,0,1.89,1,3,3,0,0,0,1.43.13l.32.33-4,4.1a10.23,10.23,0,0,1-3.53-1.87q-2-1.47-4-3.23t-3.88-3.45a29,29,0,0,0-3.21-2.62,8.58,8.58,0,0,0-3.56-1.46,6.81,6.81,0,0,0-3.18.33,10.55,10.55,0,0,0-2.94,1.64,28.59,28.59,0,0,0-2.77,2.45Zm8.31-14.56a21.94,21.94,0,0,0,3.37-4.23,12.34,12.34,0,0,0,1.68-4.42,9.76,9.76,0,0,0-.35-4.45,10.8,10.8,0,0,0-2.75-4.26,10.35,10.35,0,0,0-4.34-2.78,8.45,8.45,0,0,0-4.32-.11,12.54,12.54,0,0,0-4.15,1.89,25.51,25.51,0,0,0-3.85,3.21l-11.65,11.64,14.93,14.94Z"/><path class="cls-1" d="M214.28,159.3l-35.07-42.24,4-3.31L218.27,156Z"/><path class="cls-1" d="M239.08,110.71,236.62,107,256.12,94l15.81,23.55L268.26,120,263,112.18a25.59,25.59,0,0,1-.27,5.55A18.13,18.13,0,0,1,261.1,123a20.85,20.85,0,0,1-3.47,5A31.67,31.67,0,0,1,252,132.6a24.83,24.83,0,0,1-9,3.84,20.61,20.61,0,0,1-9.37-.27,25.57,25.57,0,0,1-9.23-4.79,41.55,41.55,0,0,1-8.63-9.63,40.41,40.41,0,0,1-5-10.19,25,25,0,0,1-1.16-10.15,22,22,0,0,1,3.2-9.45,26.58,26.58,0,0,1,8.1-8.11,30,30,0,0,1,7.34-3.64,21.4,21.4,0,0,1,7.44-1.09A19.35,19.35,0,0,1,243,80.79a22.47,22.47,0,0,1,6.74,4.7l-4.43,3a16.13,16.13,0,0,0-5-3.27A15.7,15.7,0,0,0,234.74,84a17.48,17.48,0,0,0-5.64.76,19.5,19.5,0,0,0-5.36,2.54,20.85,20.85,0,0,0-6.66,6.77,17.09,17.09,0,0,0-2.33,8,23.49,23.49,0,0,0,1.57,9,44.36,44.36,0,0,0,5,9.49,27.94,27.94,0,0,0,5.95,6.47,22.11,22.11,0,0,0,7.27,3.85,18.52,18.52,0,0,0,7.95.62,18.82,18.82,0,0,0,8-3.17,21.85,21.85,0,0,0,3.52-3,17.66,17.66,0,0,0,4.65-8.67,17,17,0,0,0,.21-5.56,20,20,0,0,0-1.53-5.5,39.94,39.94,0,0,0-2.84-5.26Z"/><path class="cls-1" d="M289.1,108.43,263.29,60l4.57-2.44L293.67,106Z"/><path class="cls-1" d="M297.27,50.68l-.14.06L315.41,95l-4.79,2-21-50.74L295.09,44l47.63,32.23.14-.06L324.55,31.83l4.8-2L350.3,80.6l-5.57,2.3Z"/><path class="cls-1" d="M361.58,76.58,368.26,18l5.68-1.52,34.5,47.62-5.16,1.38-10.56-15-24.17,6.45L366.74,75.2Zm7.53-24.42,20.77-5.55L372.06,21.53Z"/><path class="cls-1" d="M422.14,36.58l3.36,24.71-5.15.63L413,7.59l21.31-2.9q9-1.23,14.21,1.49C452,8,454,11.41,454.72,16.45a14.21,14.21,0,0,1-1,8.44A15.91,15.91,0,0,1,447.69,31a8.62,8.62,0,0,1,4.11,1.9,10.9,10.9,0,0,1,2.53,3.35,18.54,18.54,0,0,1,1.46,4.19c.33,1.5.62,3,.86,4.35q.5,3.09,1,5.1a32,32,0,0,0,.91,3.26,8,8,0,0,0,.91,1.92,3.1,3.1,0,0,0,1.06,1l.06.45-5.66.85a10.28,10.28,0,0,1-1.68-3.62c-.45-1.58-.85-3.24-1.22-5s-.7-3.44-1-5.1a30.61,30.61,0,0,0-1-4,8.57,8.57,0,0,0-1.95-3.31,6.72,6.72,0,0,0-2.73-1.67,10.79,10.79,0,0,0-3.34-.47,29.42,29.42,0,0,0-3.69.27ZM437.56,30a22.42,22.42,0,0,0,5.25-1.33,12,12,0,0,0,4-2.51,9.64,9.64,0,0,0,2.42-3.75,10.56,10.56,0,0,0,.38-5.06,10.17,10.17,0,0,0-1.77-4.83,8.4,8.4,0,0,0-3.37-2.7,12.67,12.67,0,0,0-4.45-1,26.64,26.64,0,0,0-5,.22l-16.32,2.22,2.85,20.93Z"/><path class="cls-1" d="M478,55.83,475.58,1l5.18-.23,2.37,54.86Z"/><path class="cls-1" d="M499.81,0l39.93,1.56L539.57,6,522.19,5.3l-2,50.44-5.18-.2L517,5.1l-17.37-.68Z"/><path class="cls-1" d="M570.79,32.12,591.1,8.42l6,.89L572.76,37l-3.57,23.68-5.12-.77,3.51-23.3L552.87,2.66l5.88.88Z"/></g></g></svg>