<svg xmlns="http://www.w3.org/2000/svg" viewBox="0 0 99.9 44.62"><defs><style>.cls-1{fill:#fff;}.cls-2{fill:none;stroke:#fff;stroke-linecap:round;stroke-linejoin:round;stroke-width:1.42px;}</style></defs><g id="Layer_2" data-name="Layer 2"><g id="レイヤー_3" data-name="レイヤー 3"><path class="cls-1" d="M27.87,9v2.53H23.6V23.32h-3V11.57H16.31V9Z"/><path class="cls-1" d="M41.11,22.05a6.24,6.24,0,0,1-4.68,1.67,6.24,6.24,0,0,1-4.68-1.67,7.69,7.69,0,0,1-2.17-5.89q0-3.93,2.17-5.89A6.24,6.24,0,0,1,36.43,8.6a6.24,6.24,0,0,1,4.68,1.67q2.16,2,2.16,5.89A7.72,7.72,0,0,1,41.11,22.05Zm-1.87-2.17a5.8,5.8,0,0,0,1-3.72,5.79,5.79,0,0,0-1-3.71,3.38,3.38,0,0,0-2.81-1.32,3.47,3.47,0,0,0-2.83,1.31,5.8,5.8,0,0,0-1.05,3.72,5.8,5.8,0,0,0,1.05,3.72,3.47,3.47,0,0,0,2.83,1.31A3.4,3.4,0,0,0,39.24,19.88Z"/><path class="cls-1" d="M56.41,9v2.53H52.14V23.32h-3V11.57H44.85V9Z"/><path class="cls-1" d="M62.74,9h3.37l5,14.28H67.93L67,20.38H61.73l-1,2.94H57.64Zm-.2,8.88H66.2L64.39,12.3Z"/><path class="cls-1" d="M73.48,9h3V20.75h7.13v2.57H73.48Z"/><polygon class="cls-2" points="99.19 0.71 0.71 0.71 0.71 31.72 42.91 31.72 49.95 43.91 56.98 31.72 99.19 31.72 99.19 0.71"/></g></g></svg>