<svg xmlns="http://www.w3.org/2000/svg" viewBox="0 0 30.7 24.95"><defs><style>.cls-1{fill:#fff;}</style></defs><g id="Layer_2" data-name="Layer 2"><g id="レイヤー_3" data-name="レイヤー 3"><path class="cls-1" d="M30.7,3a12.85,12.85,0,0,1-3.62,1A6.33,6.33,0,0,0,29.85.46a12.49,12.49,0,0,1-4,1.53A6.3,6.3,0,0,0,15,6.3a6.15,6.15,0,0,0,.16,1.43,17.87,17.87,0,0,1-13-6.58A6.28,6.28,0,0,0,4.09,9.56a6.15,6.15,0,0,1-2.86-.79v.08A6.3,6.3,0,0,0,6.29,15a6.52,6.52,0,0,1-1.66.22,6.67,6.67,0,0,1-1.19-.11,6.31,6.31,0,0,0,5.89,4.37,12.67,12.67,0,0,1-7.83,2.7A12.33,12.33,0,0,1,0,22.12,17.82,17.82,0,0,0,9.66,25C21.24,25,27.58,15.35,27.58,7c0-.27,0-.55,0-.82A12.49,12.49,0,0,0,30.7,3Z"/></g></g></svg>