<svg xmlns="http://www.w3.org/2000/svg" viewBox="0 0 19.46 15.82"><defs><style>.cls-1{fill:#9ebeff;}</style></defs><g id="Layer_2" data-name="Layer 2"><g id="レイヤー_3" data-name="レイヤー 3"><path class="cls-1" d="M19.46,1.87a7.92,7.92,0,0,1-2.29.63A4,4,0,0,0,18.93.29a8,8,0,0,1-2.54,1A4,4,0,0,0,9.48,4a3.84,3.84,0,0,0,.11.91A11.28,11.28,0,0,1,1.36.73a3.93,3.93,0,0,0-.55,2A4,4,0,0,0,2.59,6.06a4,4,0,0,1-1.81-.5v.05A4,4,0,0,0,4,9.53a4.11,4.11,0,0,1-1.06.14,4.76,4.76,0,0,1-.75-.07,4,4,0,0,0,3.73,2.77,8,8,0,0,1-5,1.71A7.46,7.46,0,0,1,0,14a11.26,11.26,0,0,0,6.12,1.8A11.28,11.28,0,0,0,17.48,4.46c0-.18,0-.35,0-.52A8,8,0,0,0,19.46,1.87Z"/></g></g></svg>