<svg xmlns="http://www.w3.org/2000/svg" viewBox="0 0 38.55 27.16"><defs><style>.cls-1{fill:#696a6c;}</style></defs><g id="Layer_2" data-name="Layer 2"><g id="レイヤー_3" data-name="レイヤー 3"><path class="cls-1" d="M37.74,4.24A4.83,4.83,0,0,0,34.34.81C31.33,0,19.28,0,19.28,0S7.22,0,4.21.81A4.85,4.85,0,0,0,.81,4.24C0,7.27,0,13.58,0,13.58s0,6.31.81,9.34a4.85,4.85,0,0,0,3.4,3.43c3,.81,15.07.81,15.07.81s12,0,15.06-.81a4.83,4.83,0,0,0,3.4-3.43c.81-3,.81-9.34.81-9.34S38.55,7.27,37.74,4.24ZM15.33,19.31V7.85l10.08,5.73Z"/></g></g></svg>