<svg xmlns="http://www.w3.org/2000/svg" viewBox="0 0 147.92 41.75"><defs><style>.cls-1{fill:#696a6c;}</style></defs><g id="Layer_2" data-name="Layer 2"><g id="レイヤー_3" data-name="レイヤー 3"><path class="cls-1" d="M130.19,12.22c.35,2.12,1.44,4.35,2.72,5.06s2.33-.13,2.3-1.05-.34-1.24-1.52-2.75a5.92,5.92,0,0,1,4.27-10c3.49-.14,6,2.83,6.72,5.4s.17,5-2.36,6a4.74,4.74,0,0,1-5.16-1.09,5.61,5.61,0,0,1-1.53-3.67c-.08-1-1.4-.87-1.12.33a6.55,6.55,0,0,0,3.74,4.83,5.4,5.4,0,0,0,5.86-.84c1.64-1.6,2-3.73,1.22-6.18A7.64,7.64,0,0,0,138.17,3a8.28,8.28,0,0,0-6.61,3.14A8,8,0,0,0,130.19,12.22Z"/><path class="cls-1" d="M146.77,15.57a10.83,10.83,0,0,0,1.15-4.85,10.72,10.72,0,1,0-10.83,10.72c2.81,0,5.84-1.24,7.16-4.06A7,7,0,0,0,143,10.05c-1.14-1.32-3-2.63-4.11-2.52a1.25,1.25,0,0,0-1.2,1.83c.31.86,2,1.32,3.61,3a5,5,0,0,1,1,5.36,5.25,5.25,0,0,1-5,3c-5.69,0-9.71-4.29-9.71-10a9.83,9.83,0,0,1,19.65,0,9.39,9.39,0,0,1-1.13,4.5.36.36,0,0,0,.09.52A.4.4,0,0,0,146.77,15.57Z"/><path class="cls-1" d="M25.53,9.26a38.51,38.51,0,0,1-9.44-1c-3.25-.75-5.72-2.16-9.37-2.13S-.37,7.48,0,8.35a10.16,10.16,0,0,0,3.5,3.56c1.75,1.1,4,2.07,5,2s1.77-.38.69-.75A34.83,34.83,0,0,1,3.94,11c-1-.59-1.78-1.34-1-1.91A8.63,8.63,0,0,1,7.06,7.92a9.84,9.84,0,0,1,5.69.93,33.15,33.15,0,0,0,11.78,2.38c5,.06,11-.32,13.52-1.19s3-1.75,2.94-2.31-.44-.66-2.28-1.28a48.19,48.19,0,0,0-8.66-2C26.62,4,23.77,3.79,22.62,4s-1.25.69-1.81,1.88a49.27,49.27,0,0,0-3.19,8.87,29.77,29.77,0,0,0-.28,11.15c.75,4.22,2.15,7.22,3.75,8.81s3.81,2.62,5,2.16,1.75-2,1.47-2.28-.49,0-1.16.28c-1.28.56-2.34.84-4-.69S19.06,28.57,18.75,23A31,31,0,0,1,21,10.53,15.94,15.94,0,0,1,22.73,7.3c.65-.75,1.47-1.08,3.42-1s4.87.33,7,.51c1.84.17,5.11.39,5.2,1s-.68.72-2.53.94S29,9.23,25.53,9.26Z"/><path class="cls-1" d="M26.43,25.1c.24,1.63.79,3.5,2.14,3.81,1.51.34,2.13,0,2.72-.88.82-1.32,1.43-6.37,2.1-8.59.16-.54.17-.53.4-.17,1.15,1.85,2.18,3.89,2.9,5.3a28.82,28.82,0,0,1,2.25,5.24,16.07,16.07,0,0,1-.19,4.83c-.25,1.43-.39,2,.22,2.91s1.07.77,1.52.18.7-1.28,1-3.89.77-7.42,1.33-11.2a84.94,84.94,0,0,1,2.07-10.26c.66-2.14,1.49-3.93,1.61-4.75s.12-1.34.17-1.76-.21-.34-.59.35a37.44,37.44,0,0,0-3.5,8.44c-.63,2.46-2.09,9.13-2.54,12.53,0,.35-.23.69-.52.12-1.27-2.49-2.25-4.95-3.09-6.84A18.41,18.41,0,0,0,34,16c-.61-.54-1.29-.6-1.5-.17-.66,1.36-1.39,6.35-2.24,9.19-.46,1.55-.9,2.24-1.37,2.19s-.67-.75-.77-1.8c-.23-2.4.51-6.51.32-7.85a2.06,2.06,0,0,0-1.75-1.92,4.23,4.23,0,0,0-2.11-.28c-.47.17-.45.33.28.77s1.7,1.06,1.78,1.93C26.84,20.22,26.25,23.84,26.43,25.1Z"/><path class="cls-1" d="M46.6,24.55c-.19,3.82.16,5.07,1,6.89.59,1.22,1.06,1.47,1.46,1.33s.43-.42.21-1.29a18.06,18.06,0,0,1-.55-5.93,13.75,13.75,0,0,1,1.08-3.67,2.84,2.84,0,0,0-.09-2.35c-.35-.47-1.46-.86-2-1.26s-1.12-.12-.75.35a2,2,0,0,1,.38,1.87A19.6,19.6,0,0,0,46.6,24.55Z"/><path class="cls-1" d="M54,22.41c-.2,2.54-1,8.73-1,9.29a1.39,1.39,0,0,0,.82,1.06c.35.21.58-.09.75-.61a86.24,86.24,0,0,0,1.67-10.49c0-.28.16-.37.52-.05,1.77,1.61,3.54,4.78,4.55,6.5.89,1.51,1.65,2.57,1.68,4.33a40.5,40.5,0,0,1-.38,5c-.09.7.33.49.68.11a5.15,5.15,0,0,1,1.57-1.1c.61-.26.74-1.26.89-3.42.24-3.42.92-9.16,1.52-12.7a66.83,66.83,0,0,1,2.21-9.53,19.34,19.34,0,0,0,1.12-3.35A11,11,0,0,0,70.67,6c0-.47-.08-.67-.47,0a48.85,48.85,0,0,0-3.89,9.88c-.66,2.3-1.88,7.55-2.21,9s-.51,2.58-.58,3.14-.19.61-.35.3a48.71,48.71,0,0,0-4.4-6.93A31.59,31.59,0,0,0,56.39,19c-.78-.79-1.16-1.15-1.86-1.24s-1.17.16-1,.82c.19.89.46,1.36.51,2A10.08,10.08,0,0,1,54,22.41Z"/><path class="cls-1" d="M93.46,22.21h0l-1.11,5.46h2.27Zm4.19,9.53c.17.74-1.09,1.2-1.52,1.2s-.48-.09-.57-.51L95,29.7H92.67c-.52,0-.81.21-.87.54l-.31,1.48c-.18.91-1.28,1.22-1.95,1.22-.45,0-.52-.19-.43-.57l3.4-14.51H94.4Z"/><path class="cls-1" d="M83.8,17.86H81.53V32.92H87c.9,0,1.28-1.24,1.28-1.64s-.19-.52-.59-.52H84.63c-.52,0-.83-.2-.83-.54Z"/><path class="cls-1" d="M115.26,17.86c.37,0,.54.09.54.49s-.35,1.55-1.2,1.55h-2.82c-.53,0-.83.19-.83.53v3.63h3.91v2h-3.08c-.53,0-.83.2-.83.54v4.13h4.33c.39,0,.58.09.58.52s-.38,1.64-1.28,1.64h-5.9V17.86Z"/><path class="cls-1" d="M121.53,31.67c0,.9-1.31,1.27-1.73,1.27s-.54-.19-.54-.58V19.9h-2.63v-2h7.49c.39,0,.58.09.58.49s-.37,1.55-1.27,1.55h-1.08c-.52,0-.82.19-.82.53Z"/><path class="cls-1" d="M101.22,23.88h0v7.79c0,.9-1.3,1.27-1.73,1.27s-.54-.19-.54-.58V17.86h2.18L104.51,27h0V17.86h2.27V31.67c0,.9-1.3,1.27-1.73,1.27s-.41,0-.5-.26Z"/><path class="cls-1" d="M72.91,17.86h3.4a3.81,3.81,0,0,1,2.94,1.06c.78.79,1,1.74,1,3.54a5.25,5.25,0,0,1-.64,3,3.57,3.57,0,0,1-3.29,1.57H76c-.52,0-.82.19-.82.53v4.08c0,.9-1.3,1.27-1.73,1.27s-.54-.19-.54-.58ZM75.18,25h1.09c1.85,0,1.87-1,1.87-2.54s0-2.58-1.78-2.58H76c-.52,0-.82.19-.82.53Z"/><path class="cls-1" d="M96.84,37.28h0l-.46,2.27h1Zm1.75,4c.07.31-.46.5-.64.5s-.2,0-.23-.21l-.24-1.14h-1c-.21,0-.33.08-.36.22l-.13.62c-.08.38-.53.51-.81.51s-.22-.08-.18-.24l1.41-6h.79Z"/><path class="cls-1" d="M113.79,35.47c.15,0,.22,0,.22.2s-.14.65-.5.65h-1.18c-.21,0-.34.08-.34.22v1.51h1.63v.85h-1.29c-.21,0-.34.08-.34.23v1.72h1.8c.17,0,.25,0,.25.22s-.16.68-.54.68H111V35.47Z"/><path class="cls-1" d="M87.33,35.47c.15,0,.23,0,.23.2s-.15.65-.5.65H85.88c-.22,0-.35.08-.35.22v1.51h1.63v.85H85.88c-.22,0-.35.08-.35.23v1.72h1.81c.16,0,.24,0,.24.22s-.16.68-.53.68H84.58V35.47Z"/><path class="cls-1" d="M75.68,35.47c.15,0,.23,0,.23.2s-.15.65-.5.65H74.23c-.22,0-.35.08-.35.22v1.51h1.64v.85H74.23c-.22,0-.35.08-.35.23v1.72h1.81c.16,0,.24,0,.24.22s-.15.68-.53.68H72.94V35.47Z"/><path class="cls-1" d="M120.87,41.22c0,.37-.54.53-.72.53s-.22-.08-.22-.24v-5.2h-1.1v-.84H122c.17,0,.25,0,.25.2s-.16.64-.54.64h-.44c-.22,0-.35.09-.35.23Z"/><path class="cls-1" d="M94,41.22c0,.37-.54.53-.72.53s-.22-.08-.22-.24v-5.2H92v-.84h3.12c.17,0,.24,0,.24.2s-.15.64-.53.64h-.44c-.22,0-.35.09-.35.23Z"/><path class="cls-1" d="M99.3,41.51c0,.16,0,.24.22.24s.72-.16.72-.53V35.47H99.3Z"/><path class="cls-1" d="M82.74,41.22c0,.37-.54.53-.72.53s-.23-.08-.23-.24v-5.2H80.7v-.84h3.12c.16,0,.24,0,.24.2s-.15.64-.53.64h-.45c-.21,0-.34.09-.34.23Z"/><path class="cls-1" d="M102.27,38h0v3.25c0,.37-.55.53-.72.53s-.23-.08-.23-.24v-6h.91l1.43,3.78h0V35.47h.94v5.75c0,.37-.54.53-.72.53s-.17,0-.21-.11Z"/><path class="cls-1" d="M115.73,38h0v3.25c0,.37-.55.53-.73.53s-.22-.08-.22-.24v-6h.91l1.43,3.78h0V35.47h.95v5.75c0,.37-.54.53-.72.53s-.17,0-.21-.11Z"/><path class="cls-1" d="M77.63,38h0v3.25c0,.37-.54.53-.72.53s-.22-.08-.22-.24v-6h.9L79,39.25h0V35.47H80v5.75c0,.37-.54.53-.72.53s-.17,0-.21-.11Z"/><path class="cls-1" d="M106.62,41.22c0,.37-.54.53-.72.53s-.22-.08-.22-.24v-6h.91l1.21,3.32h0l1.2-3.32h.92v5.75c0,.37-.54.53-.72.53s-.22-.08-.22-.24V37.93h0l-.86,2.46c-.07.22-.31.24-.44.24s-.11,0-.14-.07l-.9-2.63h0Z"/><path class="cls-1" d="M91.48,41.22l-.83-2.34a1.58,1.58,0,0,0,.81-1.57c0-1.22-.54-1.84-1.66-1.84H88.28v6c0,.16,0,.24.22.24s.72-.16.72-.53V39.29c0-.14.13-.22.35-.22h.22l.84,2.57c0,.09.1.11.21.11S91.6,41.56,91.48,41.22Zm-1.72-2.95h-.54V36.54c0-.14.13-.23.35-.23h.14c.7,0,.81.35.81,1S90.42,38.27,89.76,38.27Z"/></g></g></svg>