<svg xmlns="http://www.w3.org/2000/svg" viewBox="0 0 32.62 30.62"><defs><style>.cls-1{fill:#696a6c;}</style></defs><g id="Layer_2" data-name="Layer 2"><g id="レイヤー_3" data-name="レイヤー 3"><path class="cls-1" d="M20,12.36a1.85,1.85,0,0,0-.15-.57.56.56,0,0,1,0-.08,2,2,0,0,0-.36-.51,7.35,7.35,0,0,0-10.37,0L2.14,18.11A7.33,7.33,0,0,0,12.51,28.48l4.07-4.07a10.28,10.28,0,0,1-4-1.64L9.68,25.65a3.41,3.41,0,0,1-4.71,0,3.33,3.33,0,0,1,0-4.71l3.78-3.78h0L11.88,14A3.42,3.42,0,0,1,13,13.3a3.61,3.61,0,0,1,.64-.19h0a3.35,3.35,0,0,1,3,.92,2,2,0,0,0,2.83,0,2.15,2.15,0,0,0,.53-.95v0a1.74,1.74,0,0,0,0-.6A.28.28,0,0,0,20,12.36Z"/><path class="cls-1" d="M30.47,2.15a7.32,7.32,0,0,0-10.36,0L16,6.22a10.37,10.37,0,0,1,4,1.63L22.93,5a3.41,3.41,0,0,1,4.71,0,3.28,3.28,0,0,1,1,2.35,3.32,3.32,0,0,1-1,2.36L26.37,11h0L20.73,16.6a3.43,3.43,0,0,1-4.71,0,2,2,0,0,0-2.83,2.82,7.33,7.33,0,0,0,10.37,0l5.64-5.63h0l1.27-1.27a7.32,7.32,0,0,0,0-10.36Z"/></g></g></svg>